<svg viewBox="0 0 500 500" xmlns="http://www.w3.org/2000/svg">
  <defs></defs>
  <path d="M 196.355 253.47 C 196.355 248.844 195.735 245.233 194.494 242.639 C 193.253 240.043 191.701 238.097 189.84 236.8 C 187.978 235.502 185.975 234.6 183.832 234.092 C 181.688 233.584 179.685 233.048 177.824 232.484 C 175.962 231.92 174.411 231.102 173.17 230.03 C 171.929 228.958 171.308 227.181 171.308 224.699 C 171.308 211.837 177.965 202.557 191.278 196.86 C 204.591 191.162 223.828 188.313 248.988 188.313 C 257.45 188.313 264.558 189.103 270.312 190.683 C 276.067 192.262 280.834 194.462 284.613 197.283 C 288.393 200.103 291.326 203.488 293.413 207.437 C 295.5 211.385 297.024 215.757 297.983 220.553 C 298.942 225.348 299.506 230.453 299.675 235.869 C 299.844 241.285 299.929 246.926 299.929 252.793 L 299.929 343.505 C 299.929 348.017 300.521 351.515 301.706 353.998 C 302.891 356.48 304.414 358.369 306.276 359.667 C 308.137 360.964 310.112 361.838 312.199 362.29 C 314.286 362.741 316.261 363.249 318.122 363.813 C 319.984 364.377 321.507 365.195 322.692 366.267 C 323.877 367.339 324.469 369.116 324.469 371.598 C 324.469 384.46 317.953 393.74 304.922 399.438 C 291.891 405.136 273.246 407.985 248.988 407.985 C 243.009 407.985 237.706 407.533 233.08 406.631 C 228.454 405.728 224.42 404.543 220.979 403.077 C 217.538 401.61 214.577 399.946 212.094 398.084 C 209.612 396.222 207.525 394.276 205.833 392.245 C 201.884 387.732 199.401 382.486 198.386 376.506 C 192.519 383.162 185.581 389.086 177.57 394.276 C 174.185 396.532 170.349 398.704 166.062 400.792 C 161.775 402.879 157.092 404.741 152.015 406.377 C 146.938 408.013 141.437 409.338 135.514 410.354 C 129.591 411.369 123.301 411.877 116.644 411.877 C 104.233 411.877 93.515 410.325 84.489 407.223 C 75.463 404.12 67.819 399.974 61.557 394.784 C 55.295 389.594 50.246 383.557 46.41 376.675 C 42.574 369.793 39.584 362.572 37.441 355.013 C 35.297 347.453 33.858 339.809 33.125 332.081 C 32.392 324.352 32.025 316.99 32.025 309.996 L 32.025 254.316 C 32.025 249.577 31.404 245.882 30.163 243.231 C 28.922 240.579 27.343 238.548 25.425 237.138 C 23.507 235.728 21.476 234.769 19.332 234.261 C 17.189 233.753 15.158 233.189 13.239 232.569 C 11.321 231.948 9.742 231.102 8.501 230.03 C 7.26 228.958 6.639 227.181 6.639 224.699 C 6.639 211.837 13.296 202.557 26.609 196.86 C 39.922 191.162 59.159 188.313 84.32 188.313 C 95.489 188.313 104.402 189.667 111.059 192.375 C 117.716 195.083 122.793 198.778 126.291 203.46 C 129.788 208.142 132.045 213.698 133.06 220.13 C 134.075 226.561 134.583 233.5 134.583 240.946 L 134.583 324.55 C 134.583 331.545 135.119 337.779 136.191 343.251 C 137.263 348.723 139.068 353.377 141.607 357.213 C 144.146 361.049 147.502 363.954 151.676 365.929 C 155.851 367.903 161.041 368.89 167.246 368.89 C 171.195 368.89 174.919 368.269 178.416 367.029 C 181.913 365.787 184.96 364.038 187.555 361.782 C 190.15 359.526 192.209 356.846 193.732 353.744 C 195.255 350.641 196.017 347.228 196.017 343.505 L 196.355 253.47 Z M 363.386 130.095 C 363.386 124.453 364.373 119.517 366.348 115.287 C 368.323 111.055 370.861 107.388 373.964 104.286 C 377.067 101.183 380.621 98.588 384.626 96.501 C 388.631 94.414 392.665 92.75 396.726 91.509 C 400.788 90.267 404.709 89.393 408.488 88.886 C 412.268 88.378 415.568 88.124 418.389 88.124 C 421.435 88.124 424.904 88.378 428.797 88.886 C 432.69 89.393 436.667 90.267 440.728 91.509 C 444.79 92.75 448.795 94.414 452.744 96.501 C 456.693 98.588 460.218 101.183 463.321 104.286 C 466.424 107.388 468.906 111.055 470.768 115.287 C 472.629 119.517 473.56 124.453 473.56 130.095 C 473.56 135.623 472.629 140.531 470.768 144.819 C 468.906 149.106 466.424 152.773 463.321 155.819 C 460.218 158.865 456.693 161.432 452.744 163.52 C 448.795 165.607 444.79 167.271 440.728 168.512 C 436.667 169.753 432.69 170.628 428.797 171.136 C 424.904 171.643 421.435 171.897 418.389 171.897 C 415.568 171.897 412.268 171.643 408.488 171.136 C 404.709 170.628 400.788 169.753 396.726 168.512 C 392.665 167.271 388.631 165.607 384.626 163.52 C 380.621 161.432 377.067 158.865 373.964 155.819 C 370.861 152.773 368.323 149.134 366.348 144.904 C 364.373 140.672 363.386 135.736 363.386 130.095 Z M 468.314 343.166 C 468.314 347.679 468.935 351.177 470.176 353.659 C 471.417 356.141 472.968 358.031 474.83 359.329 C 476.691 360.626 478.694 361.5 480.838 361.952 C 482.981 362.403 484.984 362.911 486.846 363.475 C 488.707 364.039 490.259 364.857 491.5 365.929 C 492.741 367.001 493.361 368.778 493.361 371.26 C 493.361 384.122 486.704 393.402 473.391 399.1 C 460.078 404.797 440.841 407.646 415.681 407.646 C 403.496 407.646 392.721 406.969 383.356 405.615 C 373.992 404.261 366.094 402.089 359.663 399.1 C 353.232 396.11 348.352 392.33 345.024 387.761 C 341.695 383.191 340.031 377.69 340.031 371.26 C 340.031 368.778 340.652 367.001 341.893 365.929 C 343.134 364.857 344.657 364.039 346.462 363.475 C 348.267 362.911 350.242 362.403 352.386 361.952 C 354.529 361.5 356.504 360.626 358.309 359.329 C 360.114 358.031 361.637 356.169 362.878 353.744 C 364.119 351.318 364.74 347.792 364.74 343.166 L 364.74 252.793 C 364.74 248.279 364.119 244.782 362.878 242.3 C 361.637 239.818 360.114 237.928 358.309 236.631 C 356.504 235.333 354.529 234.459 352.386 234.008 C 350.242 233.556 348.267 233.048 346.462 232.484 C 344.657 231.92 343.134 231.102 341.893 230.03 C 340.652 228.958 340.031 227.181 340.031 224.699 C 340.031 218.268 341.695 212.768 345.024 208.199 C 348.352 203.629 353.232 199.85 359.663 196.86 C 366.094 193.87 373.992 191.698 383.356 190.344 C 392.721 188.99 403.496 188.313 415.681 188.313 C 427.866 188.313 437.456 188.933 444.451 190.175 C 451.446 191.415 456.721 193.531 460.275 196.521 C 463.829 199.511 466.057 203.544 466.96 208.622 C 467.863 213.699 468.314 220.074 468.314 227.746 L 468.314 343.166 Z" style="fill: rgb(51, 51, 51); white-space: pre;"></path>
</svg>