<svg viewBox="0 0 500 500" xmlns="http://www.w3.org/2000/svg" xmlns:bx="https://boxy-svg.com">
  <defs>
    <style bx:fonts="Alumni Sans">@import url(https://fonts.googleapis.com/css2?family=Alumni+Sans%3Aital%2Cwght%400%2C100%3B0%2C200%3B0%2C300%3B0%2C400%3B0%2C500%3B0%2C600%3B0%2C700%3B0%2C800%3B0%2C900%3B1%2C100%3B1%2C200%3B1%2C300%3B1%2C400%3B1%2C500%3B1%2C600%3B1%2C700%3B1%2C800%3B1%2C900&amp;display=swap);</style>
    <style bx:fonts="Fjalla One">@import url(https://fonts.googleapis.com/css2?family=Fjalla+One%3Aital%2Cwght%400%2C400&amp;display=swap);</style>
    <style bx:fonts="Offside">@import url(https://fonts.googleapis.com/css2?family=Offside%3Aital%2Cwght%400%2C400&amp;display=swap);</style>
  </defs>
  <path d="M 234.799 68.85 C 234.799 67.898 234.672 67.154 234.416 66.621 C 234.161 66.087 233.842 65.686 233.458 65.419 C 233.075 65.152 232.663 64.966 232.222 64.861 C 231.78 64.757 231.368 64.647 230.985 64.53 C 230.602 64.414 230.282 64.246 230.027 64.025 C 229.771 63.804 229.644 63.439 229.644 62.928 C 229.644 60.281 231.013 58.371 233.754 57.198 C 236.494 56.025 240.454 55.439 245.632 55.439 C 247.374 55.439 248.837 55.601 250.021 55.927 C 251.206 56.252 252.188 56.705 252.965 57.285 C 253.743 57.866 254.347 58.562 254.776 59.375 C 255.206 60.188 255.519 61.088 255.717 62.075 C 255.914 63.062 256.031 64.113 256.065 65.227 C 256.101 66.342 256.118 67.504 256.118 68.711 L 256.118 87.382 C 256.118 88.311 256.24 89.031 256.483 89.541 C 256.727 90.052 257.041 90.442 257.424 90.709 C 257.807 90.975 258.214 91.155 258.643 91.249 C 259.073 91.341 259.48 91.446 259.862 91.562 C 260.245 91.678 260.559 91.846 260.803 92.067 C 261.047 92.287 261.169 92.653 261.169 93.164 C 261.169 95.812 259.828 97.722 257.145 98.895 C 254.463 100.067 250.626 100.654 245.632 100.654 C 244.402 100.654 243.31 100.561 242.358 100.375 C 241.406 100.189 240.576 99.945 239.868 99.644 C 239.159 99.342 238.549 98.999 238.038 98.616 C 237.528 98.233 237.098 97.832 236.75 97.414 C 235.937 96.486 235.426 95.405 235.218 94.175 C 234.009 95.545 232.581 96.764 230.933 97.832 C 230.236 98.297 229.446 98.743 228.564 99.173 C 227.682 99.603 226.718 99.986 225.673 100.323 C 224.628 100.66 223.495 100.932 222.277 101.142 C 221.057 101.35 219.762 101.455 218.392 101.455 C 215.838 101.455 213.632 101.136 211.774 100.497 C 209.916 99.858 208.343 99.005 207.054 97.937 C 205.765 96.869 204.725 95.626 203.936 94.209 C 203.146 92.793 202.531 91.307 202.09 89.751 C 201.649 88.195 201.352 86.621 201.202 85.031 C 201.051 83.44 200.975 81.925 200.975 80.485 L 200.975 69.024 C 200.975 68.049 200.848 67.288 200.592 66.743 C 200.337 66.197 200.011 65.779 199.617 65.488 C 199.222 65.199 198.804 65.001 198.362 64.897 C 197.922 64.792 197.503 64.676 197.109 64.548 C 196.714 64.42 196.388 64.246 196.133 64.025 C 195.878 63.804 195.75 63.439 195.75 62.928 C 195.75 60.281 197.12 58.371 199.86 57.198 C 202.6 56.025 206.56 55.439 211.739 55.439 C 214.038 55.439 215.873 55.717 217.243 56.275 C 218.613 56.833 219.658 57.592 220.378 58.557 C 221.098 59.52 221.562 60.664 221.771 61.988 C 221.981 63.311 222.085 64.74 222.085 66.272 L 222.085 83.481 C 222.085 84.92 222.195 86.203 222.416 87.33 C 222.636 88.456 223.008 89.414 223.531 90.203 C 224.053 90.993 224.744 91.591 225.603 91.998 C 226.462 92.404 227.531 92.607 228.808 92.607 C 229.621 92.607 230.387 92.479 231.107 92.224 C 231.826 91.968 232.453 91.608 232.988 91.144 C 233.522 90.679 233.946 90.128 234.259 89.489 C 234.573 88.851 234.729 88.149 234.729 87.382 L 234.799 68.85 Z M 269.178 43.456 C 269.178 42.294 269.381 41.279 269.787 40.408 C 270.194 39.537 270.716 38.782 271.355 38.144 C 271.994 37.505 272.725 36.971 273.55 36.541 C 274.374 36.112 275.204 35.769 276.04 35.514 C 276.876 35.258 277.683 35.078 278.461 34.974 C 279.239 34.869 279.918 34.817 280.499 34.817 C 281.126 34.817 281.84 34.869 282.641 34.974 C 283.442 35.078 284.261 35.258 285.097 35.514 C 285.933 35.769 286.757 36.112 287.57 36.541 C 288.383 36.971 289.109 37.505 289.747 38.144 C 290.386 38.782 290.897 39.537 291.28 40.408 C 291.663 41.279 291.854 42.294 291.854 43.456 C 291.854 44.594 291.663 45.604 291.28 46.487 C 290.897 47.369 290.386 48.123 289.747 48.75 C 289.109 49.378 288.383 49.906 287.57 50.336 C 286.757 50.765 285.933 51.108 285.097 51.363 C 284.261 51.619 283.442 51.799 282.641 51.903 C 281.84 52.008 281.126 52.06 280.499 52.06 C 279.918 52.06 279.239 52.008 278.461 51.903 C 277.683 51.799 276.876 51.619 276.04 51.363 C 275.204 51.108 274.374 50.765 273.55 50.336 C 272.725 49.906 271.994 49.378 271.355 48.75 C 270.716 48.123 270.194 47.375 269.787 46.504 C 269.381 45.633 269.178 44.617 269.178 43.456 Z M 290.775 87.312 C 290.775 88.241 290.903 88.961 291.158 89.472 C 291.414 89.983 291.733 90.372 292.116 90.639 C 292.499 90.906 292.911 91.086 293.353 91.179 C 293.794 91.272 294.206 91.376 294.589 91.492 C 294.972 91.608 295.292 91.777 295.547 91.998 C 295.803 92.218 295.931 92.584 295.931 93.094 C 295.931 95.742 294.561 97.652 291.82 98.825 C 289.08 99.998 285.12 100.584 279.942 100.584 C 277.433 100.584 275.216 100.445 273.288 100.166 C 271.361 99.888 269.735 99.44 268.411 98.825 C 267.088 98.21 266.084 97.431 265.399 96.491 C 264.713 95.551 264.37 94.419 264.37 93.094 C 264.37 92.584 264.498 92.218 264.753 91.998 C 265.009 91.777 265.323 91.608 265.694 91.492 C 266.066 91.376 266.472 91.272 266.914 91.179 C 267.355 91.086 267.761 90.906 268.133 90.639 C 268.505 90.372 268.818 89.988 269.073 89.489 C 269.329 88.99 269.457 88.265 269.457 87.312 L 269.457 68.711 C 269.457 67.782 269.329 67.062 269.073 66.551 C 268.818 66.04 268.505 65.651 268.133 65.384 C 267.761 65.117 267.355 64.937 266.914 64.844 C 266.472 64.751 266.066 64.647 265.694 64.53 C 265.323 64.414 265.009 64.246 264.753 64.025 C 264.498 63.804 264.37 63.439 264.37 62.928 C 264.37 61.604 264.713 60.473 265.399 59.532 C 266.084 58.591 267.088 57.814 268.411 57.198 C 269.735 56.583 271.361 56.136 273.288 55.857 C 275.216 55.578 277.433 55.439 279.942 55.439 C 282.449 55.439 284.424 55.567 285.864 55.822 C 287.303 56.077 288.389 56.513 289.121 57.129 C 289.852 57.744 290.31 58.574 290.496 59.619 C 290.682 60.664 290.775 61.977 290.775 63.555 L 290.775 87.312 Z" style="white-space: pre; fill: rgb(51, 51, 51);"></path>
  <text style="fill: rgb(51, 51, 51); font-family: &quot;Alumni Sans&quot;; font-size: 150px; font-weight: 900; white-space: pre;" x="74.24" y="102.182">SQ</text>
  <text style="fill: rgb(51, 51, 51); font-family: &quot;Alumni Sans&quot;; font-size: 150px; font-weight: 900; white-space: pre;" x="295.931" y="102.182">L</text>
  <path d="M 578.999 68.036 C 578.999 67.084 578.872 66.34 578.616 65.807 C 578.361 65.273 578.042 64.872 577.658 64.605 C 577.275 64.338 576.863 64.152 576.422 64.047 C 575.98 63.943 575.568 63.833 575.185 63.716 C 574.802 63.6 574.482 63.432 574.227 63.211 C 573.971 62.99 573.844 62.625 573.844 62.114 C 573.844 59.467 575.213 57.557 577.954 56.384 C 580.694 55.211 584.654 54.625 589.832 54.625 C 591.574 54.625 593.037 54.787 594.221 55.113 C 595.406 55.438 596.388 55.891 597.165 56.471 C 597.943 57.052 598.547 57.748 598.976 58.561 C 599.406 59.374 599.719 60.274 599.917 61.261 C 600.114 62.248 600.231 63.299 600.265 64.413 C 600.301 65.528 600.318 66.69 600.318 67.897 L 600.318 86.568 C 600.318 87.497 600.44 88.217 600.683 88.727 C 600.927 89.238 601.241 89.628 601.624 89.895 C 602.007 90.161 602.414 90.341 602.843 90.435 C 603.273 90.527 603.68 90.632 604.062 90.748 C 604.445 90.864 604.759 91.032 605.003 91.253 C 605.247 91.473 605.369 91.839 605.369 92.35 C 605.369 94.998 604.028 96.908 601.345 98.081 C 598.663 99.253 594.826 99.84 589.832 99.84 C 588.602 99.84 587.51 99.747 586.558 99.561 C 585.606 99.375 584.776 99.131 584.068 98.83 C 583.359 98.528 582.749 98.185 582.238 97.802 C 581.728 97.419 581.298 97.018 580.95 96.6 C 580.137 95.672 579.626 94.591 579.418 93.361 C 578.209 94.731 576.781 95.95 575.133 97.018 C 574.436 97.483 573.646 97.929 572.764 98.359 C 571.882 98.789 570.918 99.172 569.873 99.509 C 568.828 99.846 567.695 100.118 566.477 100.328 C 565.257 100.536 563.962 100.641 562.592 100.641 C 560.038 100.641 557.832 100.322 555.974 99.683 C 554.116 99.044 552.543 98.191 551.254 97.123 C 549.965 96.055 548.925 94.812 548.136 93.395 C 547.346 91.979 546.731 90.493 546.29 88.937 C 545.849 87.381 545.552 85.807 545.402 84.217 C 545.251 82.626 545.175 81.111 545.175 79.671 L 545.175 68.21 C 545.175 67.235 545.048 66.474 544.792 65.929 C 544.537 65.383 544.211 64.965 543.817 64.674 C 543.422 64.385 543.004 64.187 542.562 64.083 C 542.122 63.978 541.703 63.862 541.309 63.734 C 540.914 63.606 540.588 63.432 540.333 63.211 C 540.078 62.99 539.95 62.625 539.95 62.114 C 539.95 59.467 541.32 57.557 544.06 56.384 C 546.8 55.211 550.76 54.625 555.939 54.625 C 558.238 54.625 560.073 54.903 561.443 55.461 C 562.813 56.019 563.858 56.778 564.578 57.743 C 565.298 58.706 565.762 59.85 565.971 61.174 C 566.181 62.497 566.285 63.926 566.285 65.458 L 566.285 82.667 C 566.285 84.106 566.395 85.389 566.616 86.516 C 566.836 87.642 567.208 88.6 567.731 89.389 C 568.253 90.179 568.944 90.777 569.803 91.184 C 570.662 91.59 571.731 91.793 573.008 91.793 C 573.821 91.793 574.587 91.665 575.307 91.41 C 576.026 91.154 576.653 90.794 577.188 90.33 C 577.722 89.865 578.146 89.314 578.459 88.675 C 578.773 88.037 578.929 87.335 578.929 86.568 L 578.999 68.036 Z M 613.378 42.642 C 613.378 41.48 613.581 40.465 613.987 39.594 C 614.394 38.723 614.916 37.968 615.555 37.33 C 616.194 36.691 616.925 36.157 617.75 35.727 C 618.574 35.298 619.404 34.955 620.24 34.7 C 621.076 34.444 621.883 34.264 622.661 34.16 C 623.439 34.055 624.118 34.003 624.699 34.003 C 625.326 34.003 626.04 34.055 626.841 34.16 C 627.642 34.264 628.461 34.444 629.297 34.7 C 630.133 34.955 630.957 35.298 631.77 35.727 C 632.583 36.157 633.309 36.691 633.947 37.33 C 634.586 37.968 635.097 38.723 635.48 39.594 C 635.863 40.465 636.054 41.48 636.054 42.642 C 636.054 43.78 635.863 44.79 635.48 45.673 C 635.097 46.555 634.586 47.309 633.947 47.936 C 633.309 48.564 632.583 49.092 631.77 49.522 C 630.957 49.951 630.133 50.294 629.297 50.549 C 628.461 50.805 627.642 50.985 626.841 51.089 C 626.04 51.194 625.326 51.246 624.699 51.246 C 624.118 51.246 623.439 51.194 622.661 51.089 C 621.883 50.985 621.076 50.805 620.24 50.549 C 619.404 50.294 618.574 49.951 617.75 49.522 C 616.925 49.092 616.194 48.564 615.555 47.936 C 614.916 47.309 614.394 46.561 613.987 45.69 C 613.581 44.819 613.378 43.803 613.378 42.642 Z M 634.975 86.498 C 634.975 87.427 635.103 88.147 635.358 88.658 C 635.614 89.169 635.933 89.558 636.316 89.825 C 636.699 90.092 637.111 90.272 637.553 90.365 C 637.994 90.458 638.406 90.562 638.789 90.678 C 639.172 90.794 639.492 90.963 639.747 91.184 C 640.003 91.404 640.131 91.77 640.131 92.28 C 640.131 94.928 638.761 96.838 636.02 98.011 C 633.28 99.184 629.32 99.77 624.142 99.77 C 621.633 99.77 619.416 99.631 617.488 99.352 C 615.561 99.074 613.935 98.626 612.611 98.011 C 611.288 97.396 610.284 96.617 609.599 95.677 C 608.913 94.737 608.57 93.605 608.57 92.28 C 608.57 91.77 608.698 91.404 608.953 91.184 C 609.209 90.963 609.523 90.794 609.894 90.678 C 610.266 90.562 610.672 90.458 611.114 90.365 C 611.555 90.272 611.961 90.092 612.333 89.825 C 612.705 89.558 613.018 89.174 613.273 88.675 C 613.529 88.176 613.657 87.451 613.657 86.498 L 613.657 67.897 C 613.657 66.968 613.529 66.248 613.273 65.737 C 613.018 65.226 612.705 64.837 612.333 64.57 C 611.961 64.303 611.555 64.123 611.114 64.03 C 610.672 63.937 610.266 63.833 609.894 63.716 C 609.523 63.6 609.209 63.432 608.953 63.211 C 608.698 62.99 608.57 62.625 608.57 62.114 C 608.57 60.79 608.913 59.659 609.599 58.718 C 610.284 57.777 611.288 57 612.611 56.384 C 613.935 55.769 615.561 55.322 617.488 55.043 C 619.416 54.764 621.633 54.625 624.142 54.625 C 626.649 54.625 628.624 54.753 630.064 55.008 C 631.503 55.263 632.589 55.699 633.321 56.315 C 634.052 56.93 634.51 57.76 634.696 58.805 C 634.882 59.85 634.975 61.163 634.975 62.741 L 634.975 86.498 Z" style="white-space: pre; fill: rgb(51, 51, 51);"></path>
  <text style="fill: rgb(51, 51, 51); font-family: &quot;Fjalla One&quot;; font-size: 120px; font-weight: 900; white-space: pre;" x="421.761" y="98.488">SQ</text>
  <text style="fill: rgb(51, 51, 51); font-family: &quot;Fjalla One&quot;; font-size: 120px; font-weight: 900; white-space: pre;" x="636.062" y="98.488">L</text>
  <path d="M 292.65 267.395 C 292.65 266.443 292.523 265.699 292.267 265.166 C 292.012 264.632 291.693 264.231 291.309 263.964 C 290.926 263.697 290.514 263.511 290.073 263.406 C 289.631 263.302 289.219 263.192 288.836 263.075 C 288.453 262.959 288.133 262.791 287.878 262.57 C 287.622 262.349 287.495 261.984 287.495 261.473 C 287.495 258.826 288.864 256.916 291.605 255.743 C 294.345 254.57 298.305 253.984 303.483 253.984 C 305.225 253.984 306.688 254.146 307.872 254.472 C 309.057 254.797 310.039 255.25 310.816 255.83 C 311.594 256.411 312.198 257.107 312.627 257.92 C 313.057 258.733 313.37 259.633 313.568 260.62 C 313.765 261.607 313.882 262.658 313.916 263.772 C 313.952 264.887 313.969 266.049 313.969 267.256 L 313.969 285.927 C 313.969 286.856 314.091 287.576 314.334 288.086 C 314.578 288.597 314.892 288.987 315.275 289.254 C 315.658 289.52 316.065 289.7 316.494 289.794 C 316.924 289.886 317.331 289.991 317.713 290.107 C 318.096 290.223 318.41 290.391 318.654 290.612 C 318.898 290.832 319.02 291.198 319.02 291.709 C 319.02 294.357 317.679 296.267 314.996 297.44 C 312.314 298.612 308.477 299.199 303.483 299.199 C 302.253 299.199 301.161 299.106 300.209 298.92 C 299.257 298.734 298.427 298.49 297.719 298.189 C 297.01 297.887 296.4 297.544 295.889 297.161 C 295.379 296.778 294.949 296.377 294.601 295.959 C 293.788 295.031 293.277 293.95 293.069 292.72 C 291.86 294.09 290.432 295.309 288.784 296.377 C 288.087 296.842 287.297 297.288 286.415 297.718 C 285.533 298.148 284.569 298.531 283.524 298.868 C 282.479 299.205 281.346 299.477 280.128 299.687 C 278.908 299.895 277.613 300 276.243 300 C 273.689 300 271.483 299.681 269.625 299.042 C 267.767 298.403 266.194 297.55 264.905 296.482 C 263.616 295.414 262.576 294.171 261.787 292.754 C 260.997 291.338 260.382 289.852 259.941 288.296 C 259.5 286.74 259.203 285.166 259.053 283.576 C 258.902 281.985 258.826 280.47 258.826 279.03 L 258.826 267.569 C 258.826 266.594 258.699 265.833 258.443 265.288 C 258.188 264.742 257.862 264.324 257.468 264.033 C 257.073 263.744 256.655 263.546 256.213 263.442 C 255.773 263.337 255.354 263.221 254.96 263.093 C 254.565 262.965 254.239 262.791 253.984 262.57 C 253.729 262.349 253.601 261.984 253.601 261.473 C 253.601 258.826 254.971 256.916 257.711 255.743 C 260.451 254.57 264.411 253.984 269.59 253.984 C 271.889 253.984 273.724 254.262 275.094 254.82 C 276.464 255.378 277.509 256.137 278.229 257.102 C 278.949 258.065 279.413 259.209 279.622 260.533 C 279.832 261.856 279.936 263.285 279.936 264.817 L 279.936 282.026 C 279.936 283.465 280.046 284.748 280.267 285.875 C 280.487 287.001 280.859 287.959 281.382 288.748 C 281.904 289.538 282.595 290.136 283.454 290.543 C 284.313 290.949 285.382 291.152 286.659 291.152 C 287.472 291.152 288.238 291.024 288.958 290.769 C 289.677 290.513 290.304 290.153 290.839 289.689 C 291.373 289.224 291.797 288.673 292.11 288.034 C 292.424 287.396 292.58 286.694 292.58 285.927 L 292.65 267.395 Z M 327.029 242.001 C 327.029 240.839 327.232 239.824 327.638 238.953 C 328.045 238.082 328.567 237.327 329.206 236.689 C 329.845 236.05 330.576 235.516 331.401 235.086 C 332.225 234.657 333.055 234.314 333.891 234.059 C 334.727 233.803 335.534 233.623 336.312 233.519 C 337.09 233.414 337.769 233.362 338.35 233.362 C 338.977 233.362 339.691 233.414 340.492 233.519 C 341.293 233.623 342.112 233.803 342.948 234.059 C 343.784 234.314 344.608 234.657 345.421 235.086 C 346.234 235.516 346.96 236.05 347.598 236.689 C 348.237 237.327 348.748 238.082 349.131 238.953 C 349.514 239.824 349.705 240.839 349.705 242.001 C 349.705 243.139 349.514 244.149 349.131 245.032 C 348.748 245.914 348.237 246.668 347.598 247.295 C 346.96 247.923 346.234 248.451 345.421 248.881 C 344.608 249.31 343.784 249.653 342.948 249.908 C 342.112 250.164 341.293 250.344 340.492 250.448 C 339.691 250.553 338.977 250.605 338.35 250.605 C 337.769 250.605 337.09 250.553 336.312 250.448 C 335.534 250.344 334.727 250.164 333.891 249.908 C 333.055 249.653 332.225 249.31 331.401 248.881 C 330.576 248.451 329.845 247.923 329.206 247.295 C 328.567 246.668 328.045 245.92 327.638 245.049 C 327.232 244.178 327.029 243.162 327.029 242.001 Z M 348.626 285.857 C 348.626 286.786 348.754 287.506 349.009 288.017 C 349.265 288.528 349.584 288.917 349.967 289.184 C 350.35 289.451 350.762 289.631 351.204 289.724 C 351.645 289.817 352.057 289.921 352.44 290.037 C 352.823 290.153 353.143 290.322 353.398 290.543 C 353.654 290.763 353.782 291.129 353.782 291.639 C 353.782 294.287 352.412 296.197 349.671 297.37 C 346.931 298.543 342.971 299.129 337.793 299.129 C 335.284 299.129 333.067 298.99 331.139 298.711 C 329.212 298.433 327.586 297.985 326.262 297.37 C 324.939 296.755 323.935 295.976 323.25 295.036 C 322.564 294.096 322.221 292.964 322.221 291.639 C 322.221 291.129 322.349 290.763 322.604 290.543 C 322.86 290.322 323.174 290.153 323.545 290.037 C 323.917 289.921 324.323 289.817 324.765 289.724 C 325.206 289.631 325.612 289.451 325.984 289.184 C 326.356 288.917 326.669 288.533 326.924 288.034 C 327.18 287.535 327.308 286.81 327.308 285.857 L 327.308 267.256 C 327.308 266.327 327.18 265.607 326.924 265.096 C 326.669 264.585 326.356 264.196 325.984 263.929 C 325.612 263.662 325.206 263.482 324.765 263.389 C 324.323 263.296 323.917 263.192 323.545 263.075 C 323.174 262.959 322.86 262.791 322.604 262.57 C 322.349 262.349 322.221 261.984 322.221 261.473 C 322.221 260.149 322.564 259.018 323.25 258.077 C 323.935 257.136 324.939 256.359 326.262 255.743 C 327.586 255.128 329.212 254.681 331.139 254.402 C 333.067 254.123 335.284 253.984 337.793 253.984 C 340.3 253.984 342.275 254.112 343.715 254.367 C 345.154 254.622 346.24 255.058 346.972 255.674 C 347.703 256.289 348.161 257.119 348.347 258.164 C 348.533 259.209 348.626 260.522 348.626 262.1 L 348.626 285.857 Z" style="white-space: pre; fill: rgb(51, 51, 51);"></path>
  <text style="fill: rgb(51, 51, 51); font-family: Offside; font-size: 120px; font-weight: 900; white-space: pre;" x="100" y="299.068">SQ</text>
  <text style="fill: rgb(51, 51, 51); font-family: Offside; font-size: 120px; font-weight: 900; white-space: pre;" x="349.549" y="300.695">L</text>
</svg>