<svg viewBox="0 0 300 300" preserveAspectRatio="none" xmlns="http://www.w3.org/2000/svg">
  <defs></defs>
  <path d="M 117.42 151.807 C 118.022 149.397 118.168 147.516 117.857 146.161 C 117.548 144.81 116.993 143.795 116.191 143.118 C 115.388 142.443 114.462 141.973 113.41 141.707 C 112.359 141.442 111.384 141.164 110.486 140.868 C 109.589 140.576 108.886 140.149 108.379 139.589 C 107.873 139.03 107.781 138.104 108.103 136.81 C 109.774 130.105 114.451 125.266 122.133 122.295 C 129.814 119.327 140.212 117.842 153.328 117.842 C 157.741 117.842 161.342 118.255 164.137 119.076 C 166.931 119.901 169.131 121.047 170.734 122.517 C 172.338 123.987 173.429 125.753 174.003 127.811 C 174.578 129.87 174.804 132.149 174.679 134.648 C 174.555 137.149 174.186 139.811 173.572 142.634 C 172.956 145.457 172.266 148.397 171.504 151.457 L 159.712 198.746 C 159.127 201.099 158.982 202.923 159.275 204.215 C 159.571 205.509 160.119 206.495 160.922 207.171 C 161.722 207.849 162.638 208.304 163.667 208.538 C 164.697 208.774 165.661 209.039 166.558 209.333 C 167.455 209.628 168.143 210.054 168.621 210.612 C 169.099 211.17 169.175 212.099 168.853 213.392 C 167.182 220.098 162.579 224.936 155.045 227.905 C 147.512 230.876 137.421 232.361 124.775 232.361 C 121.658 232.361 118.953 232.126 116.659 231.654 C 114.365 231.184 112.414 230.566 110.811 229.802 C 109.207 229.038 107.881 228.17 106.829 227.198 C 105.776 226.23 104.941 225.215 104.323 224.156 C 102.851 221.802 102.238 219.067 102.487 215.95 C 98.563 219.421 94.177 222.509 89.326 225.213 C 87.268 226.391 84.987 227.523 82.48 228.611 C 79.972 229.699 77.291 230.671 74.431 231.523 C 71.571 232.377 68.531 233.067 65.31 233.596 C 62.09 234.127 58.745 234.39 55.275 234.39 C 48.805 234.39 43.419 233.583 39.117 231.965 C 34.816 230.347 31.368 228.184 28.78 225.478 C 26.19 222.774 24.342 219.628 23.235 216.039 C 22.13 212.451 21.51 208.688 21.375 204.746 C 21.242 200.805 21.484 196.82 22.106 192.789 C 22.728 188.761 23.494 184.923 24.404 181.277 L 31.642 152.249 C 32.258 149.781 32.414 147.855 32.112 146.471 C 31.81 145.089 31.249 144.03 30.433 143.295 C 29.617 142.56 28.683 142.06 27.632 141.796 C 26.578 141.531 25.592 141.237 24.675 140.913 C 23.755 140.59 23.041 140.149 22.534 139.589 C 22.026 139.03 21.934 138.104 22.256 136.81 C 23.93 130.105 28.605 125.266 36.286 122.295 C 43.967 119.327 54.366 117.842 67.482 117.842 C 73.305 117.842 77.776 118.548 80.894 119.959 C 84.013 121.371 86.179 123.298 87.395 125.736 C 88.608 128.178 89.063 131.075 88.756 134.428 C 88.45 137.782 87.812 141.399 86.845 145.28 L 75.979 188.863 C 75.069 192.51 74.539 195.76 74.385 198.613 C 74.233 201.466 74.57 203.891 75.394 205.892 C 76.219 207.891 77.591 209.406 79.511 210.435 C 81.43 211.466 84.009 211.979 87.243 211.979 C 89.302 211.979 91.323 211.657 93.308 211.011 C 95.294 210.363 97.109 209.452 98.754 208.273 C 100.4 207.099 101.822 205.7 103.018 204.082 C 104.216 202.466 105.058 200.688 105.542 198.746 L 117.42 151.807 Z M 220.525 87.49 C 221.258 84.55 222.416 81.977 223.995 79.772 C 225.574 77.567 227.372 75.655 229.395 74.037 C 231.415 72.419 233.607 71.066 235.965 69.977 C 238.325 68.889 240.643 68.022 242.922 67.374 C 245.201 66.729 247.36 66.273 249.394 66.006 C 251.431 65.743 253.185 65.61 254.655 65.61 C 256.242 65.61 258.018 65.743 259.981 66.006 C 261.946 66.273 263.904 66.729 265.861 67.374 C 267.818 68.022 269.689 68.889 271.475 69.977 C 273.264 71.066 274.765 72.419 275.978 74.037 C 277.192 75.655 278.009 77.567 278.43 79.772 C 278.851 81.977 278.695 84.55 277.962 87.49 C 277.243 90.372 276.12 92.934 274.593 95.167 C 273.064 97.401 271.294 99.313 269.28 100.902 C 267.266 102.492 265.096 103.828 262.765 104.917 C 260.435 106.004 258.131 106.874 255.852 107.518 C 253.573 108.166 251.386 108.623 249.292 108.886 C 247.195 109.153 245.353 109.284 243.766 109.284 C 242.296 109.284 240.608 109.153 238.705 108.886 C 236.799 108.623 234.869 108.166 232.913 107.518 C 230.956 106.874 229.071 106.004 227.253 104.917 C 225.436 103.828 223.917 102.492 222.695 100.902 C 221.474 99.313 220.624 97.416 220.145 95.211 C 219.667 93.005 219.791 90.433 220.525 87.49 Z M 247.532 198.569 C 246.945 200.922 246.813 202.745 247.138 204.039 C 247.462 205.333 248.024 206.318 248.828 206.994 C 249.631 207.671 250.56 208.127 251.618 208.362 C 252.678 208.597 253.655 208.863 254.552 209.156 C 255.449 209.452 256.153 209.876 256.661 210.435 C 257.168 210.994 257.26 211.922 256.938 213.216 C 255.266 219.921 250.59 224.76 242.908 227.728 C 235.227 230.699 224.828 232.184 211.712 232.184 C 205.359 232.184 199.829 231.831 195.124 231.124 C 190.419 230.421 186.584 229.288 183.618 227.728 C 180.656 226.17 178.603 224.199 177.461 221.817 C 176.321 219.435 176.167 216.568 177.003 213.216 C 177.326 211.922 177.88 210.994 178.666 210.435 C 179.453 209.876 180.354 209.452 181.369 209.156 C 182.383 208.863 183.477 208.597 184.653 208.362 C 185.83 208.127 186.972 207.671 188.083 206.994 C 189.194 206.318 190.229 205.348 191.191 204.082 C 192.154 202.819 192.935 200.982 193.537 198.569 L 205.283 151.457 C 205.868 149.104 206 147.28 205.677 145.987 C 205.353 144.693 204.805 143.708 204.03 143.03 C 203.258 142.354 202.343 141.899 201.283 141.662 C 200.226 141.429 199.263 141.164 198.395 140.868 C 197.526 140.576 196.838 140.149 196.331 139.589 C 195.823 139.03 195.731 138.104 196.053 136.81 C 196.889 133.459 198.472 130.59 200.801 128.207 C 203.129 125.825 206.164 123.856 209.907 122.295 C 213.649 120.739 218.049 119.605 223.105 118.899 C 228.163 118.195 233.869 117.842 240.22 117.842 C 246.573 117.842 251.493 118.166 254.977 118.811 C 258.462 119.46 260.938 120.562 262.402 122.121 C 263.866 123.679 264.504 125.782 264.313 128.429 C 264.124 131.075 263.532 134.398 262.533 138.397 L 247.532 198.569 Z" style="fill: #F0F0F0; white-space: pre;"></path>
</svg>