<svg viewBox="0 0 500 500" xmlns="http://www.w3.org/2000/svg" xmlns:bx="https://boxy-svg.com">
  <defs>
    <style bx:fonts="Corben">@import url(https://fonts.googleapis.com/css2?family=Corben%3Aital%2Cwght%400%2C400%3B0%2C700&amp;display=swap);</style>
  </defs>
  <path d="M 193.816 217.148 Q 193.816 210.209 191.955 206.317 Q 190.093 202.424 187.301 200.478 Q 184.508 198.532 181.293 197.77 Q 178.077 197.009 175.285 196.162 Q 172.492 195.316 170.631 193.708 Q 168.769 192.101 168.769 188.377 Q 168.769 169.084 188.739 160.538 Q 208.709 151.991 246.449 151.991 Q 259.142 151.991 267.773 154.361 Q 276.405 156.73 282.074 160.961 Q 287.744 165.192 290.874 171.115 Q 294.005 177.038 295.444 184.231 Q 296.882 191.424 297.136 199.547 Q 297.39 207.671 297.39 216.471 L 297.39 307.183 Q 297.39 313.952 299.167 317.676 Q 300.944 321.399 303.737 323.345 Q 306.529 325.291 309.66 325.968 Q 312.791 326.645 315.583 327.491 Q 318.376 328.338 320.153 329.945 Q 321.93 331.553 321.93 335.276 Q 321.93 354.569 302.383 363.116 Q 282.836 371.663 246.449 371.663 Q 237.48 371.663 230.541 370.309 Q 223.602 368.955 218.44 366.755 Q 213.279 364.555 209.555 361.762 Q 205.832 358.97 203.294 355.923 Q 197.37 349.154 195.847 340.184 Q 187.047 350.169 175.031 357.954 Q 169.954 361.339 163.523 364.47 Q 157.092 367.601 149.476 370.055 Q 141.86 372.509 132.975 374.032 Q 124.09 375.555 114.105 375.555 Q 95.489 375.555 81.95 370.901 Q 68.411 366.247 59.018 358.462 Q 49.625 350.677 43.871 340.353 Q 38.117 330.03 34.902 318.691 Q 31.686 307.352 30.586 295.759 Q 29.486 284.166 29.486 273.674 L 29.486 217.994 Q 29.486 210.886 27.624 206.909 Q 25.763 202.932 22.886 200.816 Q 20.009 198.701 16.793 197.939 Q 13.578 197.178 10.7 196.247 Q 7.823 195.316 5.962 193.708 Q 4.1 192.101 4.1 188.377 Q 4.1 169.084 24.07 160.538 Q 44.04 151.991 81.781 151.991 Q 98.535 151.991 108.52 156.053 Q 118.505 160.115 123.752 167.138 Q 128.998 174.161 130.521 183.808 Q 132.044 193.455 132.044 204.624 L 132.044 288.228 Q 132.044 298.721 133.652 306.929 Q 135.26 315.137 139.068 320.891 Q 142.876 326.645 149.137 329.607 Q 155.399 332.568 164.707 332.568 Q 170.631 332.568 175.877 330.707 Q 181.123 328.845 185.016 325.46 Q 188.908 322.076 191.193 317.422 Q 193.478 312.768 193.478 307.183 Z M 360.847 93.773 Q 360.847 85.311 363.809 78.965 Q 366.771 72.618 371.425 67.964 Q 376.079 63.31 382.087 60.179 Q 388.095 57.049 394.187 55.187 Q 400.28 53.325 405.949 52.564 Q 411.619 51.802 415.85 51.802 Q 420.419 51.802 426.258 52.564 Q 432.097 53.325 438.189 55.187 Q 444.282 57.049 450.205 60.179 Q 456.128 63.31 460.782 67.964 Q 465.436 72.618 468.229 78.965 Q 471.021 85.311 471.021 93.773 Q 471.021 102.066 468.229 108.497 Q 465.436 114.928 460.782 119.497 Q 456.128 124.067 450.205 127.198 Q 444.282 130.329 438.189 132.19 Q 432.097 134.052 426.258 134.814 Q 420.419 135.575 415.85 135.575 Q 411.619 135.575 405.949 134.814 Q 400.28 134.052 394.187 132.19 Q 388.095 130.329 382.087 127.198 Q 376.079 124.067 371.425 119.497 Q 366.771 114.928 363.809 108.582 Q 360.847 102.235 360.847 93.773 Z M 465.775 306.844 Q 465.775 313.614 467.637 317.337 Q 469.498 321.06 472.291 323.007 Q 475.083 324.953 478.299 325.63 Q 481.514 326.307 484.307 327.153 Q 487.099 327.999 488.961 329.607 Q 490.822 331.215 490.822 334.938 Q 490.822 354.231 470.852 362.778 Q 450.882 371.324 413.142 371.324 Q 394.864 371.324 380.817 369.293 Q 366.771 367.262 357.124 362.778 Q 347.477 358.293 342.485 351.439 Q 337.492 344.584 337.492 334.938 Q 337.492 331.215 339.354 329.607 Q 341.216 327.999 343.923 327.153 Q 346.631 326.307 349.847 325.63 Q 353.062 324.953 355.77 323.007 Q 358.478 321.06 360.339 317.422 Q 362.201 313.783 362.201 306.844 L 362.201 216.471 Q 362.201 209.701 360.339 205.978 Q 358.478 202.255 355.77 200.309 Q 353.062 198.363 349.847 197.686 Q 346.631 197.009 343.923 196.162 Q 341.216 195.316 339.354 193.708 Q 337.492 192.101 337.492 188.377 Q 337.492 178.731 342.485 171.877 Q 347.477 165.023 357.124 160.538 Q 366.771 156.053 380.817 154.022 Q 394.864 151.991 413.142 151.991 Q 431.42 151.991 441.912 153.853 Q 452.405 155.714 457.736 160.199 Q 463.067 164.684 464.421 172.3 Q 465.775 179.916 465.775 191.424 Z" style="fill: rgb(51, 51, 51); white-space: pre;"></path>
</svg>