<svg viewBox="0 0 500 500" xmlns="http://www.w3.org/2000/svg" xmlns:bx="https://boxy-svg.com">
  <path d="M 194.116 252.879 Q 194.116 245.94 192.255 242.048 Q 190.393 238.155 187.601 236.209 Q 184.808 234.263 181.593 233.501 Q 178.377 232.74 175.585 231.893 Q 172.792 231.047 170.931 229.439 Q 169.069 227.832 169.069 224.108 Q 169.069 204.815 189.039 196.269 Q 209.009 187.722 246.749 187.722 Q 259.442 187.722 268.073 190.092 Q 276.705 192.461 282.374 196.692 Q 288.044 200.923 291.174 206.846 Q 294.305 212.769 295.744 219.962 Q 297.182 227.155 297.436 235.278 Q 297.69 243.402 297.69 252.202 L 297.69 342.914 Q 297.69 349.683 299.467 353.406 Q 301.244 357.13 304.037 359.076 Q 306.829 361.022 309.96 361.699 Q 313.091 362.376 315.883 363.222 Q 318.676 364.068 320.453 365.676 Q 322.23 367.284 322.23 371.007 Q 322.23 390.3 302.683 398.847 Q 283.136 407.393 246.749 407.393 Q 237.78 407.393 230.841 406.04 Q 223.902 404.686 218.74 402.486 Q 213.579 400.285 209.855 397.493 Q 206.132 394.701 203.594 391.654 Q 197.67 384.885 196.147 375.915 Q 187.347 385.9 175.331 393.685 Q 170.254 397.07 163.823 400.201 Q 157.392 403.332 149.776 405.786 Q 142.16 408.24 133.275 409.763 Q 124.39 411.286 114.405 411.286 Q 95.789 411.286 82.25 406.632 Q 68.711 401.978 59.318 394.193 Q 49.925 386.408 44.171 376.084 Q 38.417 365.761 35.202 354.422 Q 31.986 343.083 30.886 331.49 Q 29.786 319.897 29.786 309.405 L 29.786 253.725 Q 29.786 246.617 27.924 242.64 Q 26.063 238.663 23.186 236.547 Q 20.309 234.432 17.093 233.67 Q 13.878 232.909 11 231.978 Q 8.123 231.047 6.262 229.439 Q 4.4 227.832 4.4 224.108 Q 4.4 204.815 24.37 196.269 Q 44.34 187.722 82.081 187.722 Q 98.835 187.722 108.82 191.784 Q 118.805 195.846 124.052 202.869 Q 129.298 209.892 130.821 219.539 Q 132.344 229.186 132.344 240.355 L 132.344 323.959 Q 132.344 334.452 133.952 342.66 Q 135.56 350.868 139.368 356.622 Q 143.176 362.376 149.437 365.338 Q 155.699 368.299 165.007 368.299 Q 170.931 368.299 176.177 366.438 Q 181.423 364.576 185.316 361.191 Q 189.208 357.807 191.493 353.153 Q 193.778 348.499 193.778 342.914 Z M 361.141 129.504 Q 361.141 121.042 364.102 114.696 Q 367.064 108.349 371.718 103.695 Q 376.372 99.041 382.38 95.91 Q 388.388 92.78 394.481 90.918 Q 400.573 89.056 406.243 88.295 Q 411.912 87.533 416.143 87.533 Q 420.712 87.533 426.551 88.295 Q 432.39 89.056 438.483 90.918 Q 444.575 92.78 450.498 95.91 Q 456.422 99.041 461.076 103.695 Q 465.73 108.349 468.522 114.696 Q 471.315 121.042 471.315 129.504 Q 471.315 137.797 468.522 144.228 Q 465.73 150.659 461.076 155.228 Q 456.422 159.798 450.498 162.929 Q 444.575 166.06 438.483 167.921 Q 432.39 169.783 426.551 170.544 Q 420.712 171.306 416.143 171.306 Q 411.912 171.306 406.243 170.544 Q 400.573 169.783 394.481 167.921 Q 388.388 166.06 382.38 162.929 Q 376.372 159.798 371.718 155.228 Q 367.064 150.659 364.102 144.313 Q 361.141 137.966 361.141 129.504 Z M 466.068 342.575 Q 466.068 349.345 467.93 353.068 Q 469.792 356.791 472.584 358.737 Q 475.376 360.684 478.592 361.361 Q 481.808 362.038 484.6 362.884 Q 487.392 363.73 489.254 365.338 Q 491.116 366.946 491.116 370.669 Q 491.116 389.962 471.145 398.508 Q 451.175 407.055 413.435 407.055 Q 395.158 407.055 381.111 405.024 Q 367.064 402.993 357.417 398.508 Q 347.771 394.024 342.778 387.169 Q 337.786 380.315 337.786 370.669 Q 337.786 366.946 339.647 365.338 Q 341.509 363.73 344.217 362.884 Q 346.925 362.038 350.14 361.361 Q 353.356 360.684 356.063 358.737 Q 358.771 356.791 360.633 353.153 Q 362.495 349.514 362.495 342.575 L 362.495 252.202 Q 362.495 245.432 360.633 241.709 Q 358.771 237.986 356.063 236.04 Q 353.356 234.093 350.14 233.417 Q 346.925 232.74 344.217 231.893 Q 341.509 231.047 339.647 229.439 Q 337.786 227.832 337.786 224.108 Q 337.786 214.462 342.778 207.608 Q 347.771 200.754 357.417 196.269 Q 367.064 191.784 381.111 189.753 Q 395.158 187.722 413.435 187.722 Q 431.713 187.722 442.206 189.584 Q 452.699 191.445 458.03 195.93 Q 463.361 200.415 464.714 208.031 Q 466.068 215.646 466.068 227.155 Z" style=""></path>
  <style>
    path { fill: #888; }
    @media (prefers-color-scheme: light) { path { fill: #333; } }
    @media (prefers-color-scheme: dark) { path { fill: #ddd; } }
</style>
</svg>